<?xml version="1.0" standalone="no"?>
<!DOCTYPE svg PUBLIC "-//W3C//DTD SVG 20010904//EN"
 "http://www.w3.org/TR/2001/REC-SVG-20010904/DTD/svg10.dtd">
<svg version="1.0" xmlns="http://www.w3.org/2000/svg"
 width="152.000000pt" height="153.000000pt" viewBox="0 0 152.000000 153.000000"
 preserveAspectRatio="xMidYMid meet">

<g transform="translate(0.000000,153.000000) scale(0.100000,-0.100000)"
fill="#000000" stroke="none">
<path d="M258 1433 c-8 -10 -46 -71 -83 -136 l-67 -118 4 -101 3 -100 48 -43
47 -43 -2 -359 -3 -358 -52 -3 c-38 -2 -53 -7 -53 -18 0 -12 93 -14 680 -14
587 0 680 2 680 14 0 11 -15 16 -52 18 l-53 3 -3 359 -2 360 35 29 c54 44 65
74 65 173 l0 86 -66 117 c-37 64 -74 124 -82 134 -14 16 -52 17 -522 17 -470
0 -508 -1 -522 -17z m192 -25 c0 -2 -17 -50 -38 -108 l-37 -105 -103 -3 c-67
-2 -102 1 -102 8 0 6 26 55 57 110 l57 100 83 0 c46 0 83 -1 83 -2z m201 -3
c4 -3 -15 -197 -20 -212 -3 -7 -211 -2 -211 5 0 7 47 153 65 200 3 8 29 12 83
12 43 0 81 -2 83 -5z m221 -65 c4 -36 10 -84 13 -107 l6 -43 -112 0 -111 0 6
43 c3 23 8 67 12 97 9 85 4 81 96 78 l83 -3 7 -65z m235 -35 c18 -54 33 -103
33 -107 0 -7 -209 -12 -211 -5 -5 16 -24 209 -20 213 3 2 41 3 85 2 l79 -3 34
-100z m226 5 c31 -55 57 -104 57 -110 0 -7 -35 -10 -102 -8 l-103 3 -37 108
-37 107 82 0 83 0 57 -100z m-963 -230 c0 -63 -3 -72 -31 -104 -37 -43 -83
-55 -127 -32 -50 26 -62 52 -62 133 l0 73 110 0 110 0 0 -70z m260 5 c0 -81
-17 -117 -66 -140 -31 -14 -43 -15 -75 -6 -60 18 -79 50 -79 137 l0 74 110 0
110 0 0 -65z m260 0 c0 -81 -17 -117 -66 -140 -31 -14 -43 -15 -75 -6 -58 18
-79 55 -79 140 l0 71 110 0 110 0 0 -65z m260 -2 c0 -84 -22 -125 -74 -143
-28 -9 -44 -9 -72 0 -52 18 -74 59 -74 143 l0 67 110 0 110 0 0 -67z m259 -12
c-5 -90 -19 -114 -79 -132 -31 -9 -44 -8 -74 6 -49 23 -66 59 -66 140 l0 65
111 0 111 0 -3 -79z m-915 -168 c58 -7 87 1 126 33 l31 27 29 -28 c19 -19 43
-29 74 -32 58 -7 87 1 126 33 l31 27 22 -20 c35 -32 62 -43 107 -43 45 0 72
11 108 43 l22 20 23 -20 c31 -29 61 -43 91 -43 l26 0 0 -366 0 -365 -47 3 -48
3 -3 283 -2 282 -430 0 -430 0 -2 -282 -3 -283 -47 -3 -48 -3 0 365 0 366 28
0 c31 0 90 33 99 56 5 12 12 9 38 -16 24 -24 45 -34 79 -37z m374 -350 l3
-153 -241 0 -240 0 0 148 c0 82 3 152 7 156 4 3 110 5 237 4 l231 -3 3 -152z
m297 -113 l0 -265 -125 0 -125 0 -3 268 -2 268 127 -3 128 -3 0 -265z m-297
-172 l-3 -93 -235 0 -235 0 -3 93 -3 92 241 0 241 0 -3 -92z"/>
<path d="M950 440 c0 -13 7 -20 20 -20 13 0 20 7 20 20 0 13 -7 20 -20 20 -13
0 -20 -7 -20 -20z"/>
</g>
</svg>
